<?xml version="1.0" standalone="no"?>
<!DOCTYPE svg PUBLIC "-//W3C//DTD SVG 20010904//EN"
 "http://www.w3.org/TR/2001/REC-SVG-20010904/DTD/svg10.dtd">
<svg version="1.0" xmlns="http://www.w3.org/2000/svg"
 width="377.000000pt" height="404.000000pt" viewBox="0 0 377.000000 404.000000"
 preserveAspectRatio="xMidYMid meet">

<g transform="translate(0.000000,404.000000) scale(0.100000,-0.100000)"
fill="#000000" stroke="none">
<path d="M1720 3695 c-289 -46 -510 -150 -724 -341 -183 -163 -318 -374 -380
-594 -21 -74 -21 -74 -57 -75 -104 -4 -188 -57 -233 -147 -26 -51 -26 -56 -26
-263 0 -245 9 -290 68 -352 50 -53 94 -75 167 -81 l61 -4 23 -80 c46 -160 145
-339 265 -478 l56 -65 0 -318 c0 -355 1 -361 66 -392 49 -23 103 -8 139 39 25
33 25 33 25 254 0 124 4 222 9 222 5 0 35 -15 67 -33 l59 -33 5 -227 c4 -196
7 -229 22 -247 25 -28 73 -26 103 5 25 24 25 26 25 215 0 104 2 190 5 190 3 0
35 -9 70 -21 l64 -20 3 -285 3 -284 33 -32 c28 -28 39 -33 82 -33 43 0 54 5
82 33 l33 32 3 270 3 270 75 0 74 0 0 -259 c0 -145 4 -271 10 -285 11 -30 65
-66 98 -66 35 0 84 27 107 58 19 25 20 41 17 268 -2 132 0 257 3 277 7 34 11
37 69 54 l61 19 5 -194 c5 -189 6 -194 29 -213 30 -25 62 -24 95 2 l26 20 0
224 0 223 64 36 c35 20 66 36 69 36 2 0 4 -98 3 -218 -1 -202 0 -219 19 -252
24 -40 80 -66 121 -56 15 4 42 22 61 41 l33 33 0 322 0 321 69 82 c121 144
212 311 251 460 l22 84 62 5 c75 6 134 35 175 85 54 66 61 103 61 340 0 208
-1 216 -25 268 -14 29 -43 69 -65 89 -43 39 -136 72 -175 62 -22 -6 -25 -1
-40 51 -116 410 -421 736 -835 892 -193 72 -456 99 -660 66z m483 -274 c48
-12 93 -28 100 -34 6 -7 23 -14 37 -15 14 -2 27 -8 28 -13 2 -5 10 -9 18 -9 8
0 14 -4 14 -10 0 -5 6 -10 13 -10 34 0 204 -110 199 -129 -1 -7 2 -9 8 -6 12
7 120 -98 175 -169 46 -59 101 -162 137 -256 l33 -85 3 -414 c3 -399 2 -416
-18 -485 -89 -291 -365 -563 -678 -666 -242 -80 -549 -69 -779 27 -104 44
-203 98 -220 120 -7 9 -13 13 -13 9 0 -11 -87 63 -154 131 -107 109 -220 303
-246 423 -8 39 -11 171 -8 455 4 449 0 424 88 597 42 82 49 92 87 134 12 13
19 24 16 24 -4 0 6 13 22 30 15 16 33 27 38 23 6 -3 7 -2 4 4 -9 15 109 125
193 180 104 68 287 146 319 135 7 -2 16 0 20 5 14 22 105 31 286 29 162 -2
203 -5 278 -25z"/>
<path d="M1420 2617 c-95 -21 -163 -75 -200 -160 -58 -132 -23 -274 91 -364
183 -145 466 0 463 237 -2 89 -29 147 -103 219 -44 44 -68 60 -97 64 -22 4
-52 9 -69 11 -16 3 -55 0 -85 -7z m-18 -124 c38 -34 11 -103 -40 -103 -54 0
-81 62 -45 102 20 22 61 23 85 1z"/>
<path d="M2235 2609 c-110 -41 -185 -153 -185 -278 0 -79 24 -142 76 -200 166
-185 466 -88 500 161 15 107 -46 234 -139 292 -43 26 -59 30 -135 33 -48 1
-100 -2 -117 -8z m37 -126 c38 -34 11 -103 -40 -103 -54 0 -81 62 -45 102 20
22 61 23 85 1z"/>
<path d="M1431 1704 c-25 -21 -31 -34 -31 -64 0 -60 18 -87 91 -136 89 -59
159 -90 260 -115 209 -53 483 13 636 154 38 35 43 44 43 84 0 36 -6 50 -29 74
-41 40 -84 39 -142 -3 -93 -69 -191 -107 -298 -115 -129 -9 -247 24 -367 102
-81 53 -118 57 -163 19z"/>
<path d="M644 1264 c-48 -23 -54 -49 -54 -219 l0 -155 29 -32 c25 -28 36 -33
76 -33 40 0 51 5 76 33 l29 32 0 155 c0 84 -4 165 -10 180 -10 26 -62 55 -97
55 -10 0 -32 -7 -49 -16z"/>
<path d="M3083 1270 c-46 -19 -58 -55 -61 -195 -5 -159 6 -208 51 -236 51 -32
119 -11 149 45 13 24 11 322 -3 347 -21 40 -87 58 -136 39z"/>
</g>
</svg>
